<?xml version="1.0" encoding="UTF-8"?>
<svg width="619px" height="100px" viewBox="0 0 619 100" version="1.1" xmlns="http://www.w3.org/2000/svg" xmlns:xlink="http://www.w3.org/1999/xlink">
    <!-- Generator: Sketch 63 (92445) - https://sketch.com -->
    <title>nightingale</title>
    <desc>Created with Sketch.</desc>
    <g id="页面-1" stroke="none" stroke-width="1" fill="none" fill-rule="evenodd">
        <g id="新年快乐1" transform="translate(-65.000000, -1186.000000)" fill="#FFFFFF" fill-rule="nonzero">
            <g id="nightingale" transform="translate(65.500000, 1186.000000)">
                <path d="M126.24,77 L126.24,40.92 L143.92,77 L162,77 L162,23.32 L147.76,23.32 L147.76,59.88 L130.8,23.32 L112,23.32 L112,77 L126.24,77 Z M187.68,34.36 L187.68,23.32 L172.88,23.32 L172.88,34.36 L187.68,34.36 Z M187.68,77 L187.68,37.72 L172.88,37.72 L172.88,77 L187.68,77 Z M243.52,92.68 L243.52,37.64 L197.28,37.64 L197.28,71.8 L228.8,71.8 L228.8,85.24 L196.88,85.24 L196.88,92.68 L243.52,92.68 Z M228.8,64.44 L212,64.44 L212,45.08 L228.8,45.08 L228.8,64.44 Z M266.96,77 L266.96,45.24 L284.56,45.24 L284.56,77 L299.28,77 L299.28,37.72 L266.96,37.72 L266.96,23.4 L252.16,23.4 L252.16,77 L266.96,77 Z M348.8,77 L348.8,69.48 L333.76,69.48 L333.76,45.16 L351.12,45.16 L351.12,37.64 L333.76,37.64 L333.76,28.84 L318.96,28.84 L318.96,37.64 L305.6,37.64 L305.6,45.16 L318.96,45.16 L318.96,77 L348.8,77 Z M374.08,34.36 L374.08,23.32 L359.28,23.32 L359.28,34.36 L374.08,34.36 Z M374.08,77 L374.08,37.72 L359.28,37.72 L359.28,77 L374.08,77 Z M396.64,76.92 L396.64,45.24 L415.12,45.24 L415.12,76.92 L429.92,76.92 L429.92,37.72 L381.92,37.72 L381.92,76.92 L396.64,76.92 Z M484.32,92.68 L484.32,37.64 L438.08,37.64 L438.08,71.8 L469.6,71.8 L469.6,85.24 L437.68,85.24 L437.68,92.68 L484.32,92.68 Z M469.6,64.44 L452.8,64.44 L452.8,45.08 L469.6,45.08 L469.6,64.44 Z M541.04,77 L541.04,69.48 L538.48,69.48 L538.48,37.72 L492.8,37.72 L492.8,45.24 L523.76,45.24 L523.76,52.36 L492.8,52.36 L492.8,77 L541.04,77 Z M523.76,69.48 L507.6,69.48 L507.6,59.8 L523.76,59.8 L523.76,69.48 Z M561.36,77 L561.36,23.32 L546.56,23.32 L546.56,77 L561.36,77 Z M618.48,77 L618.48,69.48 L585.28,69.48 L585.28,61.64 L618.48,61.64 L618.48,37.72 L570.48,37.72 L570.48,77 L618.48,77 Z M603.76,54.28 L585.28,54.28 L585.28,45.24 L603.76,45.24 L603.76,54.28 Z" id="Nightingale"></path>
                <path d="M42.9379957,1.44218859e-10 L85.8736059,24.9990036 L85.873,39.174 L75.138,39.174 L75.1383448,31.2486277 L42.9358704,12.4989286 L10.7347829,31.2505353 L10.733,47.967 L19.6027221,47.9669784 L29.8065779,37.6799653 L32.6536944,44.344779 L41.6507369,22.6978301 L47.5037644,48.4303081 L53.4055289,35.7267904 L60.9111212,49.4175902 L62.378636,47.9691324 L75.137,47.969 L75.138,47.834 L85.873,47.834 L85.872465,74.9990036 L42.9357139,100 L0.000103617076,75.0009964 L-9.9475983e-14,65.155 L10.734,65.155 L10.7343106,68.7507585 L42.9330664,87.4982925 L75.1389459,68.7469759 L75.137,56.628 L65.885476,56.6273475 L58.8577972,63.5753209 L54.0367647,54.7805237 L44.7092972,74.8677595 L39.2511015,50.8790275 L32.7663753,66.4872429 L26.9279265,52.8276105 L23.1609831,56.6295015 L0.000103617068,56.6295015 L0.000103617068,47.9691324 L0.00124452028,25.0009964 L42.9379957,1.44218859e-10 Z" id="形状结合"></path>
            </g>
        </g>
    </g>
</svg>